<svg xmlns="http://www.w3.org/2000/svg" viewBox="0 0 15433.52 2814.35"><defs><style>.cls-1{fill:red;}.cls-2{fill:#10100e;}</style></defs><g id="Layer_2" data-name="Layer 2"><g id="Layer_1-2" data-name="Layer 1"><rect class="cls-1" x="0.5" y="1164.85" width="399" height="1649"/><path class="cls-1" d="M399,1165.35v1648H1v-1648H399m1-1H0v1650H400v-1650Z"/><rect class="cls-1" x="0.5" y="614.85" width="399" height="399"/><path class="cls-1" d="M399,615.35v398H1v-398H399m1-1H0v400H400v-400Z"/><polygon class="cls-1" points="1750.5 2813.85 1750.5 1013.85 550.5 1013.85 550.5 614.85 2149.5 614.85 2149.5 2813.85 1750.5 2813.85"/><path class="cls-1" d="M2149,615.35v2198H1751v-1800H551v-398H2149m1-1H550v400H1750v1800h400v-2200Z"/><polygon class="cls-1" points="2300.5 2813.85 2300.5 463.85 0.5 463.85 0.5 14.85 2699.5 14.85 2699.5 2813.85 2300.5 2813.85"/><path class="cls-1" d="M2699,15.35v2798H2301v-2350H1v-448H2699m1-1H0v450H2300v2350h400V14.35Z"/><rect class="cls-1" x="550.5" y="1164.85" width="1049" height="1649"/><path class="cls-1" d="M1599,1165.35v1648H551v-1648H1599m1-1H550v1650H1600v-1650Z"/><path class="cls-2" d="M3151.08,2798.18h-155v-727h155Zm485.92-727-303,358.59,288.86,368.41H3419l-262.7-368.41,277.95-358.59Z"/><path class="cls-2" d="M4412.81,2798.18H4232.08l-69.92-169H3885.24l-69.94,169H3633.49l300.85-727H4112Zm-285-299-103.6-253-103.61,253Z"/><path class="cls-2" d="M4921.65,2495.18q0,107.91-23.44,166.75t-79,94.83q-48,30.51-118.78,38.15-31.59,3.28-77.36,3.27H4423.65v-130h148.09q130.64,0,162.78-31t32.13-158.51V2071.18h155Z"/><path class="cls-2" d="M5205.71,2798.18h-155v-727h155Z"/><path class="cls-2" d="M6165.82,2798.18h-147v-546.1L5828,2798.18H5668.82l-180-546.1v546.1h-147v-727h225.3l182.42,569.42,190.57-569.42h225.71Z"/><path class="cls-2" d="M7011.35,2798.18H6830.62l-69.92-169H6483.77l-69.93,169H6232l300.86-727h177.66Zm-285-299-103.61-253-103.6,253Z"/><path class="cls-2" d="M8005.68,2798.18H7832.44q-3.28-9.79-15.25-103.64-9.82-99.26-51.76-135.81T7620,2522.18h-124.2v276h-155v-727h355.34q155.86,0,218,42.51,80.64,55.61,80.66,160.22,0,164.58-138.44,212.53,68.67,22.91,97,66.5t34.89,135.16Q7993.67,2761.14,8005.68,2798.18Zm-181.89-504.75q0-49.92-25.61-71.08t-85.55-21.17H7495.79v191h216.84Q7823.77,2392.18,7823.79,2293.43Z"/><path class="cls-2" d="M8787.23,2450.51q0,172-89.36,261.86t-260.42,89.81q-180.89,0-274.06-92.55t-93.16-271.09q0-372.36,358.5-372.36,184.16,0,271.33,93.64T8787.23,2450.51Zm-169-16.38q0-245-186.22-245-101.85,0-147.33,57.7T8239.23,2433q0,128.48,46.55,187.81T8432,2680.18Q8618.22,2680.18,8618.23,2434.13Z"/><path class="cls-2" d="M9595.72,2798.18H9415l-69.93-169H9068.14l-69.93,169H8816.39l300.86-727h177.66Zm-285-299-103.61-253-103.61,253Z"/><path class="cls-2" d="M10336.55,2434.13q0,224.53-106.89,308.45-49.09,38.16-123.26,49.05-40.36,6.57-134.16,6.55H9663.55v-727h308.69q112.33,0,180.52,23.44t111.81,76.84q31.62,39.24,51.8,111.72A560.38,560.38,0,0,1,10336.55,2434.13Zm-169-2.17q0-141.51-66.73-197-40.5-33.75-128-33.75H9818.55v467h154.27q105,0,144.41-47.89Q10167.54,2558.22,10167.55,2432Z"/><path class="cls-2" d="M11403.12,2071.18l-318.28,727h-154.78l-306.28-727h174.4l213.63,547.15,216.9-547.15Z"/><path class="cls-2" d="M11623.58,2798.18h-155v-727h155Z"/><path class="cls-2" d="M12307,2798.18h-201.66q-116.62,0-179.85-18t-106.82-63.76q-95.93-100.28-95.92-281.2,0-200.54,123.17-305.19,39.24-32.7,82.83-45.78t116.64-13.08H12307v130h-201.41q-78.37,0-114.85,10.89t-60.41,42.48q-16.36,21.79-21.78,42.49t-9.8,75.14H12307v130H11898.7q7.62,92.22,55,129.11t158.41,36.89H12307Z"/><path class="cls-2" d="M12974.63,2201.18h-239.75v597h-155v-597h-232v-130h626.75Z"/><path class="cls-2" d="M13677.62,2798.18h-189.28l-297.72-533v533h-147v-727h196.7l290.3,542.25V2071.18h147Z"/><path class="cls-2" d="M14524.66,2798.18h-180.74l-69.92-169h-276.92l-69.94,169h-181.81l300.86-727h177.65Zm-285-299-103.61-253-103.61,253Z"/><path class="cls-2" d="M15415.49,2798.18h-147v-546.1l-190.88,546.1h-159.12l-180-546.1v546.1h-147v-727h225.3l182.42,569.42,190.56-569.42h225.72Z"/><path class="cls-2" d="M3254,1243H2991V9h263ZM4078.76,9,3564.47,617.67,4054.72,1243h-346L3262.92,617.67,3734.67,9Z"/><path class="cls-2" d="M5764.11,1243h-294q-5.55-16.63-25.89-175.73-16.64-168.33-87.84-230.3t-246.89-62H4898.61v468h-263V9H5238.7q264.57,0,370,72.16,136.91,94.35,136.91,272,0,279.38-234.95,360.77,116.52,38.85,164.64,112.85t59.22,229.41Q5743.75,1180.1,5764.11,1243Zm-308.5-856.56q0-85.2-43.48-121.31T5266.86,229H4898.61V555h368.25Q5455.61,555,5455.61,386.44Z"/><path class="cls-2" d="M7583.6,9,7043.4,1243H6780.7L6260.85,9h296l362.6,928.75L7287.6,9Z"/><path class="cls-2" d="M9520.2,1243H9091q-159.09,0-248.83-26.83t-161.87-95.28q-162.8-155.39-162.8-494,0-207.18,71.22-354.28T8789.45,64.5Q8907.83,9,9102.1,9h418.1V229H9133.3q-175.87,0-250.84,87t-75,294.27q0,225.79,75.89,319.26T9142.55,1023H9520.2Z"/><path class="cls-2" d="M10838.93,652.73q0,292.18-151.67,444.72t-442,152.55q-307,0-465.17-157.17T9621.93,632.39Q9621.93,0,10230.43,0,10543,0,10691,159T10838.93,652.73Zm-288-27.65Q10550.93,209,10236,209q-172.3,0-249.18,98t-76.88,316.2q0,218.22,78.74,319T10236,1043Q10550.93,1043,10550.93,625.08Z"/><path class="cls-2" d="M11200,1243h-224V1002h224Z"/><path class="cls-2" d="M11613.87,1216.63,11471.58,1496h-112.71l112.84-253h-81.84V1002h224Z"/><path class="cls-2" d="M13093.71,1243h-279.35q-103.6,0-140.61-1.84-268.26-12.95-370-196.11-55.5-98.07-55.5-344.13V9h263V701q0,103.65,11.1,175.8,18.46,114.72,147.92,136.92,53.63,9.25,172,9.25h251.47Z"/><path class="cls-2" d="M14175.53,229h-406.75V1243h-263V229h-394V9h1063.75Z"/><path class="cls-2" d="M15433.52,625.08q0,381.12-181.24,523.56-83.22,64.78-209,83.27-68.43,11.1-227.45,11.09h-523.34V9h523.34q190.45,0,306,39.78t189.56,130.42q53.63,66.62,87.83,189.64T15433.52,625.08Zm-288-3.7q0-240.61-112.83-335Q14964.25,229,14816.3,229h-260.78v794h260.78q177.56,0,244.14-81.44Q15145.52,836.07,15145.52,621.38Z"/></g></g></svg>