<svg xmlns="http://www.w3.org/2000/svg" viewBox="0 0 15391.27 2811.31"><defs><style>.cls-1{fill:red;}</style></defs><g id="Layer_2" data-name="Layer 2"><g id="Layer_1-2" data-name="Layer 1"><rect class="cls-1" x="0.5" y="1157.23" width="399" height="1649"/><path class="cls-1" d="M-1627,2248V3896h-398V2248h398m1-1h-400V3897h400V2247Z" transform="translate(2026 -1090.27)"/><rect class="cls-1" x="0.5" y="607.23" width="399" height="399"/><path class="cls-1" d="M-1627,1698v398h-398V1698h398m1-1h-400v400h400V1697Z" transform="translate(2026 -1090.27)"/><polygon class="cls-1" points="1750.5 2806.23 1750.5 1006.23 550.5 1006.23 550.5 607.23 2149.5 607.23 2149.5 2806.23 1750.5 2806.23"/><path class="cls-1" d="M123,1698V3896H-275V2096H-1475V1698H123m1-1H-1476v400H-276V3897H124V1697Z" transform="translate(2026 -1090.27)"/><polygon class="cls-1" points="2300.5 2806.23 2300.5 456.23 0.5 456.23 0.5 7.23 2699.5 7.23 2699.5 2806.23 2300.5 2806.23"/><path class="cls-1" d="M673,1098V3896H275V1546H-2025V1098H673m1-1H-2026v450H274V3897H674V1097Z" transform="translate(2026 -1090.27)"/><rect class="cls-1" x="550.5" y="1157.23" width="1049" height="1649"/><path class="cls-1" d="M-427,2248V3896H-1475V2248H-427m1-1H-1476V3897H-426V2247Z" transform="translate(2026 -1090.27)"/><path class="cls-1" d="M1185.71,2333.27h-263v-1234h263Zm824.8-1234-514.3,608.67,490.25,625.33h-346l-445.84-625.33,471.75-608.67Z" transform="translate(2026 -1090.27)"/><path class="cls-1" d="M3695.86,2333.27H3401.81q-5.55-16.65-25.89-175.74-16.64-168.33-87.84-230.29t-246.9-62H2830.36v468h-263v-1234h603.09q264.57,0,370,72.15,136.9,94.36,136.91,272,0,279.38-235,360.76Q3558.94,1843,3607,1917t59.22,229.41Q3675.5,2270.37,3695.86,2333.27Zm-308.5-856.56q0-85.2-43.49-121.32t-145.26-36.12H2830.36v326h368.25Q3387.34,1645.27,3387.36,1476.71Z" transform="translate(2026 -1090.27)"/><path class="cls-1" d="M5515.35,1099.27l-540.2,1234H4712.44l-519.84-1234h296L4851.19,2028l368.16-928.75Z" transform="translate(2026 -1090.27)"/><path class="cls-1" d="M7451.94,2333.27h-429.2q-159.09,0-248.83-26.83T6612,2211.16q-162.81-155.4-162.8-494,0-207.2,71.22-354.28t200.73-208.14q118.38-55.5,312.66-55.5h418.09v220H7065.05q-175.87,0-250.84,87t-75,294.26q0,225.79,75.89,319.27t259.17,93.47h377.64Z" transform="translate(2026 -1090.27)"/><path class="cls-1" d="M8770.68,1743q0,292.17-151.67,444.72t-442,152.55q-307,0-465.18-157.17t-158.12-460.44q0-632.4,608.5-632.39,312.55,0,460.53,159T8770.68,1743Zm-288-27.65q0-416.07-314.94-416.08-172.31,0-249.19,98t-76.87,316.21q0,218.22,78.73,319t247.33,100.78Q8482.67,2133.27,8482.68,1715.35Z" transform="translate(2026 -1090.27)"/><path class="cls-1" d="M9131.71,2333.27h-224v-241h224Z" transform="translate(2026 -1090.27)"/><path class="cls-1" d="M9545.61,2306.89l-142.28,279.38H9290.61l112.85-253h-81.85v-241h224Z" transform="translate(2026 -1090.27)"/><path class="cls-1" d="M11025.45,2333.27h-279.34q-103.62,0-140.61-1.85-268.26-12.93-370-196.11-55.5-98.05-55.5-344.12V1099.27h263v692q0,103.64,11.09,175.8,18.48,114.72,147.93,136.92,53.63,9.26,172,9.25h251.47Z" transform="translate(2026 -1090.27)"/><path class="cls-1" d="M12107.28,1319.27h-406.75v1014h-263v-1014h-394v-220h1063.75Z" transform="translate(2026 -1090.27)"/><path class="cls-1" d="M13365.27,1715.35q0,381.11-181.24,523.56-83.22,64.78-209,83.26-68.43,11.11-227.45,11.1h-523.34v-1234h523.34q190.45,0,306,39.78t189.56,130.42q53.63,66.62,87.83,189.64T13365.27,1715.35Zm-288-3.71q0-240.6-112.83-335-68.45-57.37-216.39-57.37h-260.78v794h260.78q177.56,0,244.14-81.44Q13077.27,1926.34,13077.27,1711.64Z" transform="translate(2026 -1090.27)"/><path class="cls-1" d="M1078,3897.58H923v-727h155Zm485.92-727-303,358.59,288.86,368.41H1345.94l-262.7-368.41,278-358.59Z" transform="translate(2026 -1090.27)"/><path class="cls-1" d="M2339.76,3897.58H2159l-69.92-169H1812.18l-69.94,169H1560.43l300.86-727h177.65Zm-285-299-103.61-253-103.61,253Z" transform="translate(2026 -1090.27)"/><path class="cls-1" d="M2848.59,3594.58q0,107.91-23.44,166.75t-79,94.83q-48,30.51-118.78,38.15-31.59,3.29-77.36,3.27H2350.59v-130h148.09q130.65,0,162.78-31T2693.59,3578V3170.58h155Z" transform="translate(2026 -1090.27)"/><path class="cls-1" d="M3132.65,3897.58h-155v-727h155Z" transform="translate(2026 -1090.27)"/><path class="cls-1" d="M4092.77,3897.58h-147V3351.49l-190.88,546.09H3595.77l-180-546.09v546.09h-147v-727h225.3L3676.49,3740l190.56-569.42h225.72Z" transform="translate(2026 -1090.27)"/><path class="cls-1" d="M4938.3,3897.58H4757.56l-69.92-169H4410.72l-69.94,169H4159l300.86-727h177.65Zm-285-299-103.61-253-103.61,253Z" transform="translate(2026 -1090.27)"/><path class="cls-1" d="M5932.62,3897.58H5759.38q-3.27-9.79-15.25-103.64-9.81-99.26-51.76-135.81t-145.44-36.55h-124.2v276h-155v-727h355.34q155.86,0,218,42.52,80.66,55.59,80.66,160.21,0,164.58-138.44,212.54,68.67,22.89,97,66.5t34.89,135.15Q5920.63,3860.54,5932.62,3897.58Zm-181.89-504.75q0-49.92-25.61-71.08t-85.55-21.17H5422.73v191h216.84Q5750.72,3491.58,5750.73,3392.83Z" transform="translate(2026 -1090.27)"/><path class="cls-1" d="M6714.17,3549.91q0,172-89.35,261.86t-260.43,89.81q-180.89,0-274.06-92.55t-93.16-271.09q0-372.34,358.5-372.36,184.15,0,271.33,93.64T6714.17,3549.91Zm-169-16.38q0-244.94-186.21-245-101.86,0-147.33,57.7t-45.46,186.16q0,128.49,46.55,187.81T6359,3779.58Q6545.17,3779.58,6545.17,3533.53Z" transform="translate(2026 -1090.27)"/><path class="cls-1" d="M7522.66,3897.58H7341.93l-69.92-169H6995.09l-69.94,169H6743.34l300.86-727h177.65Zm-285-299-103.61-253-103.61,253Z" transform="translate(2026 -1090.27)"/><path class="cls-1" d="M8263.5,3533.53q0,224.53-106.89,308.46-49.11,38.15-123.27,49-40.36,6.57-134.16,6.55H7590.5v-727h308.68q112.35,0,180.52,23.44t111.81,76.84q31.62,39.24,51.8,111.72A560.38,560.38,0,0,1,8263.5,3533.53Zm-169-2.17q0-141.51-66.74-197-40.5-33.75-128-33.75H7745.5v467h154.26q105,0,144.41-47.89Q8094.5,3657.62,8094.5,3531.36Z" transform="translate(2026 -1090.27)"/><path class="cls-1" d="M9330.07,3170.58l-318.28,727H8857l-306.28-727h174.41l213.62,547.16,216.91-547.16Z" transform="translate(2026 -1090.27)"/><path class="cls-1" d="M9550.53,3897.58h-155v-727h155Z" transform="translate(2026 -1090.27)"/><path class="cls-1" d="M10233.89,3897.58h-201.65q-116.62,0-179.86-18t-106.81-63.77q-95.94-100.26-95.93-281.2,0-200.53,123.18-305.19,39.22-32.7,82.82-45.78t116.65-13.08h261.6v130h-201.4q-78.37,0-114.86,10.89T9857.22,3354q-16.35,21.79-21.78,42.48t-9.8,75.14h408.25v130H9825.64q7.62,92.22,55,129.11t158.41,36.89h194.87Z" transform="translate(2026 -1090.27)"/><path class="cls-1" d="M10901.57,3300.58h-239.75v597h-155v-597h-232v-130h626.75Z" transform="translate(2026 -1090.27)"/><path class="cls-1" d="M11604.57,3897.58h-189.28l-297.72-533v533h-147v-727h196.7l290.3,542.25V3170.58h147Z" transform="translate(2026 -1090.27)"/><path class="cls-1" d="M12451.6,3897.58h-180.74l-69.92-169H11924l-69.94,169h-181.81l300.86-727h177.66Zm-285-299-103.61-253-103.61,253Z" transform="translate(2026 -1090.27)"/><path class="cls-1" d="M13342.43,3897.58h-147V3351.49l-190.87,546.09h-159.13l-180-546.09v546.09h-147v-727h225.3L12926.15,3740l190.56-569.42h225.72Z" transform="translate(2026 -1090.27)"/></g></g></svg>