<svg xmlns="http://www.w3.org/2000/svg" width="13.141" height="20.605" viewBox="0 0 13.141 20.605"><g transform="translate(-1123.68 -966.396)"><path d="M6592.57,20868.039a4.562,4.562,0,0,0-4.561,4.563,4.442,4.442,0,0,0,.638,2.3l.031.063,3.892,7.34,3.923-7.371a4.536,4.536,0,0,0-3.923-6.855Zm0,18.566-5.677-10.719a6.571,6.571,0,1,1,11.354,0l-5.677,10.688Z" transform="translate(-5462.32 -19899.604)" fill="#1d1d1d"/><path d="M6709,20991.648a2.647,2.647,0,1,0,2.647-2.648A2.64,2.64,0,0,0,6709,20991.648Z" transform="translate(-5581.397 -20018.682)" fill="#fdb900"/></g></svg>