<?xml version="1.0" standalone="no"?>
<!DOCTYPE svg PUBLIC "-//W3C//DTD SVG 20010904//EN"
 "http://www.w3.org/TR/2001/REC-SVG-20010904/DTD/svg10.dtd">
<svg version="1.0" xmlns="http://www.w3.org/2000/svg"
 width="512.000000pt" height="512.000000pt" viewBox="0 0 512.000000 512.000000"
 preserveAspectRatio="xMidYMid meet">
<metadata>
Created by potrace 1.14, written by Peter Selinger 2001-2017
</metadata>
<g transform="translate(0.000000,512.000000) scale(0.100000,-0.100000)"
fill="#000000" stroke="none">
<path d="M0 4715 l0 -405 2165 0 2165 0 0 -2155 0 -2155 395 0 395 0 0 2560 0
2560 -2560 0 -2560 0 0 -405z"/>
<path d="M4 3987 c-2 -7 -3 -184 -2 -395 l3 -383 347 -2 348 -2 0 398 0 397
-345 0 c-260 -1 -347 -4 -351 -13z"/>
<path d="M1010 3603 l0 -398 1147 0 1148 0 3 -1602 2 -1603 360 0 360 0 -2
1997 -3 1998 -1507 3 -1508 2 0 -397z"/>
<path d="M0 1445 l0 -1445 350 0 350 0 0 1445 0 1445 -350 0 -350 0 0 -1445z"/>
<path d="M1010 1445 l0 -1445 1000 0 1000 0 -2 1443 -3 1442 -997 3 -998 2 0
-1445z"/>
</g>
</svg>
